<svg viewBox="309.113 341.051 24.123 23.48" width="24.123" height="23.48">
  <defs>
    <linearGradient gradientUnits="userSpaceOnUse" gradientTransform="matrix(0.094224, 0, 0, -0.091704, 308.679809, 364.993286)" y2="84.03" x2="241.67" y1="84.03" x1="63.33" id="a">
      <stop stop-color="#0c59a4" offset="0"></stop>
      <stop stop-color="#114a8b" offset="1"></stop>
    </linearGradient>
    <radialGradient gradientUnits="userSpaceOnUse" gradientTransform="matrix(0.094224, 0, 0, -0.087118, 308.679809, 363.419678)" r="95.38" cy="68.91" cx="161.83" id="b">
      <stop stop-opacity="0" offset="0.72"></stop>
      <stop stop-opacity=".53" offset="0.95"></stop>
      <stop offset="1"></stop>
    </radialGradient>
    <linearGradient gradientUnits="userSpaceOnUse" gradientTransform="matrix(0.094224, 0, 0, -0.091704, 308.679809, 364.993286)" y2="40.06" x2="45.96" y1="161.39" x1="157.35" id="c">
      <stop stop-color="#1b9de2" offset="0"></stop>
      <stop stop-color="#1595df" offset="0.16"></stop>
      <stop stop-color="#0680d7" offset="0.67"></stop>
      <stop stop-color="#0078d4" offset="1"></stop>
    </linearGradient>
    <radialGradient gradientUnits="userSpaceOnUse" gradientTransform="matrix(0.014134, -0.090786, -0.07538, -0.011004, 325.323577, 329.100555)" r="143.24" cy="62.99" cx="-340.29" id="d">
      <stop stop-opacity="0" offset="0.76"></stop>
      <stop stop-opacity=".5" offset="0.95"></stop>
      <stop offset="1"></stop>
    </radialGradient>
    <radialGradient gradientUnits="userSpaceOnUse" gradientTransform="matrix(-0.003769, 0.091704, 0.200697, 0.007336, 197.538329, 330.816315)" r="202.43" cy="570.21" cx="113.37" id="e">
      <stop stop-color="#35c1f1" offset="0"></stop>
      <stop stop-color="#34c1ed" offset="0.11"></stop>
      <stop stop-color="#2fc2df" offset="0.23"></stop>
      <stop stop-color="#2bc3d2" offset="0.31"></stop>
      <stop stop-color="#36c752" offset="0.67"></stop>
    </radialGradient>
    <radialGradient gradientUnits="userSpaceOnUse" gradientTransform="matrix(0.026383, 0.088035, 0.073495, -0.021092, 280.058166, 326.982178)" r="97.34" cy="567.97" cx="376.52" id="f">
      <stop stop-color="#66eb6e" offset="0"></stop>
      <stop stop-opacity="0" stop-color="#66eb6e" offset="1"></stop>
    </radialGradient>
  </defs>
  <path d="M 330.885 358.524 C 330.564 358.688 330.233 358.831 329.893 358.956 C 328.81 359.351 327.665 359.551 326.51 359.548 C 322.052 359.548 318.168 356.564 318.168 352.733 C 318.179 351.686 318.772 350.729 319.715 350.229 C 315.684 350.393 314.646 354.484 314.646 356.88 C 314.646 363.655 321.062 364.342 322.444 364.342 C 323.189 364.342 324.314 364.131 324.987 363.923 L 325.112 363.884 C 327.708 363.009 329.921 361.301 331.387 359.041 C 331.543 358.802 331.374 358.49 331.084 358.478 C 331.015 358.475 330.947 358.491 330.885 358.524 Z" fill="url(#a)" style=""></path>
  <path style="isolation: isolate;" d="M 330.885 358.524 C 330.564 358.688 330.233 358.831 329.893 358.956 C 328.81 359.351 327.665 359.551 326.51 359.548 C 322.052 359.548 318.168 356.564 318.168 352.733 C 318.179 351.686 318.772 350.729 319.715 350.229 C 315.684 350.393 314.646 354.484 314.646 356.88 C 314.646 363.655 321.062 364.342 322.444 364.342 C 323.189 364.342 324.314 364.131 324.987 363.923 L 325.112 363.884 C 327.708 363.009 329.921 361.301 331.387 359.041 C 331.543 358.802 331.374 358.49 331.084 358.478 C 331.015 358.475 330.947 358.491 330.885 358.524 Z" fill="url(#b)" opacity=".35"></path>
  <path d="M 319.076 363.19 C 318.236 362.683 317.507 362.017 316.934 361.233 C 314.148 357.519 315.479 352.26 319.715 350.229 C 320.01 350.094 320.513 349.85 321.179 349.862 C 322.134 349.869 323.03 350.31 323.6 351.054 C 323.981 351.548 324.191 352.147 324.199 352.765 C 324.199 352.745 326.504 345.466 316.662 345.466 C 312.526 345.466 309.123 349.285 309.123 352.637 C 309.107 354.411 309.498 356.165 310.265 357.773 C 312.862 363.165 319.195 365.81 325 363.927 C 323.013 364.536 320.852 364.269 319.083 363.194 Z" fill="url(#c)" style=""></path>
  <path style="isolation: isolate;" d="M 319.076 363.19 C 318.236 362.683 317.507 362.017 316.934 361.233 C 314.148 357.519 315.479 352.26 319.715 350.229 C 320.01 350.094 320.513 349.85 321.179 349.862 C 322.134 349.869 323.03 350.31 323.6 351.054 C 323.981 351.548 324.191 352.147 324.199 352.765 C 324.199 352.745 326.504 345.466 316.662 345.466 C 312.526 345.466 309.123 349.285 309.123 352.637 C 309.107 354.411 309.498 356.165 310.265 357.773 C 312.862 363.165 319.195 365.81 325 363.927 C 323.013 364.536 320.852 364.269 319.083 363.194 Z" fill="url(#d)" opacity=".41"></path>
  <path d="M 323.465 354.701 C 323.39 354.798 323.156 354.931 323.156 355.221 C 323.156 355.46 323.316 355.69 323.6 355.884 C 324.956 356.801 327.509 356.679 327.516 356.679 C 328.521 356.678 329.506 356.413 330.368 355.914 C 332.14 354.907 333.231 353.062 333.235 351.065 C 333.261 349.01 332.481 347.643 332.167 347.038 C 330.17 343.236 325.86 341.051 321.174 341.051 C 314.578 341.05 309.206 346.205 309.113 352.624 C 309.159 349.273 312.581 346.567 316.651 346.567 C 316.981 346.567 318.862 346.598 320.608 347.49 C 322.148 348.276 322.955 349.228 323.515 350.168 C 324.098 351.148 324.202 352.383 324.202 352.876 C 324.202 353.368 323.944 354.099 323.465 354.701 Z" fill="url(#e)" style=""></path>
  <path d="M 323.465 354.701 C 323.39 354.798 323.156 354.931 323.156 355.221 C 323.156 355.46 323.316 355.69 323.6 355.884 C 324.956 356.801 327.509 356.679 327.516 356.679 C 328.521 356.678 329.506 356.413 330.368 355.914 C 332.14 354.907 333.231 353.062 333.235 351.065 C 333.261 349.01 332.481 347.643 332.167 347.038 C 330.17 343.236 325.86 341.051 321.174 341.051 C 314.578 341.05 309.206 346.205 309.113 352.624 C 309.159 349.273 312.581 346.567 316.651 346.567 C 316.981 346.567 318.862 346.598 320.608 347.49 C 322.148 348.276 322.955 349.228 323.515 350.168 C 324.098 351.148 324.202 352.383 324.202 352.876 C 324.202 353.368 323.944 354.099 323.465 354.701 Z" fill="url(#f)" style=""></path>
</svg>