<?xml version="1.0" encoding="utf-8"?>
<svg viewBox="0 0 500 500" xmlns="http://www.w3.org/2000/svg" xmlns:bx="https://boxy-svg.com">
  <defs>
    <radialGradient gradientUnits="userSpaceOnUse" gradientTransform="matrix(0.094224, 0, 0, -0.087118, 309.580732, 363.419678)" r="95.38" cy="68.91" cx="161.83" id="b">
      <stop stop-opacity="0" offset="0.72"/>
      <stop stop-opacity=".53" offset="0.95"/>
      <stop offset="1"/>
    </radialGradient>
    <radialGradient gradientUnits="userSpaceOnUse" gradientTransform="matrix(0.014134, -0.090786, -0.07538, -0.011004, 326.224501, 329.100555)" r="143.24" cy="62.99" cx="-340.29" id="d">
      <stop stop-opacity="0" offset="0.76"/>
      <stop stop-opacity=".5" offset="0.95"/>
      <stop offset="1"/>
    </radialGradient>
    <radialGradient gradientUnits="userSpaceOnUse" gradientTransform="matrix(-0.003769, 0.091704, 0.200697, 0.007336, 198.439253, 330.816315)" r="202.43" cy="570.21" cx="113.37" id="e">
      <stop stop-color="#35c1f1" offset="0"/>
      <stop stop-color="#34c1ed" offset="0.11"/>
      <stop stop-color="#2fc2df" offset="0.23"/>
      <stop stop-color="#2bc3d2" offset="0.31"/>
      <stop stop-color="#36c752" offset="0.67"/>
    </radialGradient>
    <radialGradient gradientUnits="userSpaceOnUse" gradientTransform="matrix(0.026383, 0.088035, 0.073495, -0.021092, 280.959089, 326.982178)" r="97.34" cy="567.97" cx="376.52" id="f">
      <stop stop-color="#66eb6e" offset="0"/>
      <stop stop-opacity="0" stop-color="#66eb6e" offset="1"/>
    </radialGradient>
    <linearGradient gradientUnits="userSpaceOnUse" gradientTransform="matrix(0.094224, 0, 0, -0.091704, 309.580732, 364.993286)" y2="84.03" x2="241.67" y1="84.03" x1="63.33" id="a">
      <stop stop-color="#0c59a4" offset="0"/>
      <stop stop-color="#114a8b" offset="1"/>
    </linearGradient>
    <linearGradient gradientUnits="userSpaceOnUse" gradientTransform="matrix(0.094224, 0, 0, -0.091704, 309.580732, 364.993286)" y2="40.06" x2="45.96" y1="161.39" x1="157.35" id="c">
      <stop stop-color="#1b9de2" offset="0"/>
      <stop stop-color="#1595df" offset="0.16"/>
      <stop stop-color="#0680d7" offset="0.67"/>
      <stop stop-color="#0078d4" offset="1"/>
    </linearGradient>
  </defs>
  <rect fill="#D6DBEA" fill-rule="nonzero" x="-0.646" y="217.004" width="498.496" height="34.916" rx="2" style="" transform="matrix(1, 0, -0.005737, 1, 1.834974, 118.129974)"/>
  <g transform="matrix(0.721959, 0, 0, 0.679744, 224.89035, 338.194305)" fill="#F1F1F1" fill-rule="evenodd" style="" bx:origin="0.506 0.507">
    <rect fill="#FFFFG" fill-rule="nonzero" x="7.86" y="1.32" width="27.7585" height="27.7585" rx="1.3879"/>
    <rect fill="#3A3A38" fill-rule="nonzero" x=".684" y="7.7846" width="28.9658" height="28.9658" rx="1.4483"/>
    <path d="M7.783 9.2328c0-.7998.648-1.4482 1.448-1.4482h20.276v20.276c0 .7999-.648 1.4483-1.448 1.4483H7.784V9.2328z" fill="#C1C1C0" fill-rule="nonzero"/>
  </g>
  <path fill="#0077d4" d="M 155.865 343.636 L 163.873 343.636 C 164.167 343.636 164.408 343.875 164.408 344.17 L 164.408 352.179 C 164.408 352.474 164.167 352.712 163.873 352.712 L 155.865 352.712 C 155.57 352.712 155.331 352.474 155.331 352.179 L 155.331 344.17 C 155.331 343.875 155.57 343.636 155.865 343.636 Z" style=""/>
  <path fill="#0077d4" d="M 165.497 352.155 L 165.497 344.17 C 165.497 343.875 165.736 343.636 166.031 343.636 L 174.017 343.636 C 174.311 343.636 174.55 343.875 174.55 344.17 L 174.55 352.155 C 174.55 352.45 174.311 352.691 174.017 352.691 L 166.031 352.691 C 165.736 352.691 165.497 352.45 165.497 352.155 Z" style=""/>
  <path fill="#0077d4" d="M 155.865 353.78 L 163.873 353.78 C 164.167 353.78 164.408 354.02 164.408 354.313 L 164.408 362.322 C 164.408 362.617 164.167 362.855 163.873 362.855 L 155.865 362.855 C 155.57 362.855 155.331 362.617 155.331 362.322 L 155.331 354.313 C 155.331 354.02 155.57 353.78 155.865 353.78 Z" style=""/>
  <path fill="#0077d4" d="M 165.475 362.322 L 165.475 354.313 C 165.475 354.02 165.714 353.78 166.008 353.78 L 174.017 353.78 C 174.311 353.78 174.55 354.02 174.55 354.313 L 174.55 362.322 C 174.55 362.617 174.311 362.855 174.017 362.855 L 166.008 362.855 C 165.714 362.855 165.475 362.617 165.475 362.322 Z" style=""/>
  <g id="surface43071282" transform="matrix(0, 0.023613, -0.023633, 0, 212.077057, 341.498535)" style="">
    <path style=" stroke:none;fill-rule:nonzero;fill:rgb(0%,0%,0%);fill-opacity:1;" d="M 419.710938 118.273438 C 253.589844 118.273438 118.273438 253.589844 118.273438 419.710938 C 118.273438 585.835938 253.589844 721.152344 419.710938 721.152344 C 491.953125 721.152344 558.296875 695.5 610.289062 652.914062 L 790.269531 832.898438 C 797.832031 840.773438 809.058594 843.945312 819.621094 841.191406 C 830.1875 838.4375 838.4375 830.1875 841.191406 819.621094 C 843.945312 809.058594 840.773438 797.832031 832.898438 790.269531 L 652.914062 610.289062 C 695.5 558.296875 721.152344 491.953125 721.152344 419.710938 C 721.152344 253.589844 585.835938 118.273438 419.710938 118.273438 Z M 419.710938 178.558594 C 553.253906 178.558594 660.863281 286.171875 660.863281 419.710938 C 660.863281 553.253906 553.253906 660.863281 419.710938 660.863281 C 286.171875 660.863281 178.558594 553.253906 178.558594 419.710938 C 178.558594 286.171875 286.171875 178.558594 419.710938 178.558594 Z M 419.710938 178.558594 "/>
  </g>
  <rect x="268.497" y="340.447" width="26.059" height="24.701" style="fill: rgb(9, 93, 170);" bx:origin="0.442 0.504"/>
  <rect x="271.075" y="342.814" width="10.794" height="19.935" style="fill: rgb(241, 241, 241);" rx="1.024" ry="1.024"/>
  <rect x="283.798" y="342.506" width="8.339" height="11.883" style="fill: rgb(64, 230, 232);"/>
  <rect x="283.724" y="354.854" width="8.412" height="3.992" style="fill: rgb(38, 167, 176);" rx="0.835" ry="0.835"/>
  <rect x="283.905" y="359.156" width="7.958" height="3.603" style="fill: rgb(15, 152, 181);"/>
  <path d="M 331.786 358.524 C 331.465 358.688 331.134 358.831 330.794 358.956 C 329.711 359.351 328.566 359.551 327.411 359.548 C 322.953 359.548 319.069 356.564 319.069 352.733 C 319.08 351.686 319.673 350.729 320.616 350.229 C 316.585 350.393 315.547 354.484 315.547 356.88 C 315.547 363.655 321.963 364.342 323.345 364.342 C 324.09 364.342 325.215 364.131 325.888 363.923 L 326.013 363.884 C 328.609 363.009 330.822 361.301 332.288 359.041 C 332.444 358.802 332.275 358.49 331.985 358.478 C 331.916 358.475 331.848 358.491 331.786 358.524 Z" fill="url(#a)" style=""/>
  <path style="isolation: isolate;" d="M 331.786 358.524 C 331.465 358.688 331.134 358.831 330.794 358.956 C 329.711 359.351 328.566 359.551 327.411 359.548 C 322.953 359.548 319.069 356.564 319.069 352.733 C 319.08 351.686 319.673 350.729 320.616 350.229 C 316.585 350.393 315.547 354.484 315.547 356.88 C 315.547 363.655 321.963 364.342 323.345 364.342 C 324.09 364.342 325.215 364.131 325.888 363.923 L 326.013 363.884 C 328.609 363.009 330.822 361.301 332.288 359.041 C 332.444 358.802 332.275 358.49 331.985 358.478 C 331.916 358.475 331.848 358.491 331.786 358.524 Z" fill="url(#b)" opacity=".35"/>
  <path d="M 319.977 363.19 C 319.137 362.683 318.408 362.017 317.835 361.233 C 315.049 357.519 316.38 352.26 320.616 350.229 C 320.911 350.094 321.414 349.85 322.08 349.862 C 323.035 349.869 323.931 350.31 324.501 351.054 C 324.882 351.548 325.092 352.147 325.1 352.765 C 325.1 352.745 327.405 345.466 317.563 345.466 C 313.427 345.466 310.024 349.285 310.024 352.637 C 310.008 354.411 310.399 356.165 311.166 357.773 C 313.763 363.165 320.096 365.81 325.901 363.927 C 323.914 364.536 321.753 364.269 319.984 363.194 Z" fill="url(#c)" style=""/>
  <path style="isolation: isolate;" d="M 319.977 363.19 C 319.137 362.683 318.408 362.017 317.835 361.233 C 315.049 357.519 316.38 352.26 320.616 350.229 C 320.911 350.094 321.414 349.85 322.08 349.862 C 323.035 349.869 323.931 350.31 324.501 351.054 C 324.882 351.548 325.092 352.147 325.1 352.765 C 325.1 352.745 327.405 345.466 317.563 345.466 C 313.427 345.466 310.024 349.285 310.024 352.637 C 310.008 354.411 310.399 356.165 311.166 357.773 C 313.763 363.165 320.096 365.81 325.901 363.927 C 323.914 364.536 321.753 364.269 319.984 363.194 Z" fill="url(#d)" opacity=".41"/>
  <path d="M 324.366 354.701 C 324.291 354.798 324.057 354.931 324.057 355.221 C 324.057 355.46 324.217 355.69 324.501 355.884 C 325.857 356.801 328.41 356.679 328.417 356.679 C 329.422 356.678 330.407 356.413 331.269 355.914 C 333.041 354.907 334.132 353.062 334.136 351.065 C 334.162 349.01 333.382 347.643 333.068 347.038 C 331.071 343.236 326.761 341.051 322.075 341.051 C 315.479 341.05 310.107 346.205 310.014 352.624 C 310.06 349.273 313.482 346.567 317.552 346.567 C 317.882 346.567 319.763 346.598 321.509 347.49 C 323.049 348.276 323.856 349.228 324.416 350.168 C 324.999 351.148 325.103 352.383 325.103 352.876 C 325.103 353.368 324.845 354.099 324.366 354.701 Z" fill="url(#e)" style=""/>
  <path d="M 324.366 354.701 C 324.291 354.798 324.057 354.931 324.057 355.221 C 324.057 355.46 324.217 355.69 324.501 355.884 C 325.857 356.801 328.41 356.679 328.417 356.679 C 329.422 356.678 330.407 356.413 331.269 355.914 C 333.041 354.907 334.132 353.062 334.136 351.065 C 334.162 349.01 333.382 347.643 333.068 347.038 C 331.071 343.236 326.761 341.051 322.075 341.051 C 315.479 341.05 310.107 346.205 310.014 352.624 C 310.06 349.273 313.482 346.567 317.552 346.567 C 317.882 346.567 319.763 346.598 321.509 347.49 C 323.049 348.276 323.856 349.228 324.416 350.168 C 324.999 351.148 325.103 352.383 325.103 352.876 C 325.103 353.368 324.845 354.099 324.366 354.701 Z" fill="url(#f)" style=""/>
</svg>