<svg xmlns="http://www.w3.org/2000/svg" xmlns:xlink="http://www.w3.org/1999/xlink" xmlns:bx="https://boxy-svg.com" viewBox="-782.623 -368.927 2534.873 1678.598">
  <defs>
    <style bx:fonts="Segoe UI Variable">@font-face { font-family: "Segoe UI Variable"; font-style: normal; font-weight: 400; font-stretch: normal; font-variant: normal; font-feature-settings: normal; src: url("http://fonts.cdnfonts.com/css/segoe-ui-4")</style>
    <linearGradient gradientUnits="userSpaceOnUse" gradientTransform="matrix(0.208976, 0, 0, -0.210441, 473.516721, 1303.506299)" y2="84.03" x2="241.67" y1="84.03" x1="63.33" id="gradient-1">
      <stop stop-color="#0c59a4" offset="0"/>
      <stop stop-color="#114a8b" offset="1"/>
    </linearGradient>
    <radialGradient gradientUnits="userSpaceOnUse" gradientTransform="matrix(0.208976, 0, 0, -0.199917, 473.516721, 1299.895093)" r="95.38" cy="68.91" cx="161.83" id="gradient-2">
      <stop stop-opacity="0" offset="0.72"/>
      <stop stop-opacity=".53" offset="0.95"/>
      <stop offset="1"/>
    </radialGradient>
    <linearGradient gradientUnits="userSpaceOnUse" gradientTransform="matrix(0.208976, 0, 0, -0.210441, 473.516721, 1303.506299)" y2="40.06" x2="45.96" y1="161.39" x1="157.35" id="gradient-3">
      <stop stop-color="#1b9de2" offset="0"/>
      <stop stop-color="#1595df" offset="0.16"/>
      <stop stop-color="#0680d7" offset="0.67"/>
      <stop stop-color="#0078d4" offset="1"/>
    </linearGradient>
    <radialGradient gradientUnits="userSpaceOnUse" gradientTransform="matrix(0.031348, -0.208334, -0.167182, -0.025252, 510.430235, 1221.14021)" r="143.24" cy="62.99" cx="-340.29" id="gradient-4">
      <stop stop-opacity="0" offset="0.76"/>
      <stop stop-opacity=".5" offset="0.95"/>
      <stop offset="1"/>
    </radialGradient>
    <radialGradient gradientUnits="userSpaceOnUse" gradientTransform="matrix(-0.008359, 0.210441, 0.445118, 0.016835, 227.020567, 1225.077466)" r="202.43" cy="570.21" cx="113.37" id="gradient-5">
      <stop stop-color="#35c1f1" offset="0"/>
      <stop stop-color="#34c1ed" offset="0.11"/>
      <stop stop-color="#2fc2df" offset="0.23"/>
      <stop stop-color="#2bc3d2" offset="0.31"/>
      <stop stop-color="#36c752" offset="0.67"/>
    </radialGradient>
    <radialGradient gradientUnits="userSpaceOnUse" gradientTransform="matrix(0.058514, 0.202021, 0.163001, -0.048402, 410.037962, 1216.278882)" r="97.34" cy="567.97" cx="376.52" id="gradient-6">
      <stop stop-color="#66eb6e" offset="0"/>
      <stop stop-opacity="0" stop-color="#66eb6e" offset="1"/>
    </radialGradient>
  </defs>
  <rect fill="#D6DBEA" fill-rule="nonzero" x="-3.284" y="513.197" width="2537.421" height="82.572" rx="2" style="" transform="matrix(1, 0, -0.005737, 1, -776.747864, 721.736023)"/>
  <path d="M 1494.056 1266.12 C 1497.731 1266.12 1500.709 1269.202 1500.709 1273.005 L 1500.709 1275.299 L 1502.928 1275.299 C 1503.333 1275.299 1503.711 1275.41 1504.036 1275.605 C 1504.7 1276.002 1505.145 1276.743 1505.145 1277.594 L 1505.145 1282.184 C 1505.145 1283.033 1504.7 1283.774 1504.036 1284.171 C 1503.711 1284.366 1503.333 1284.478 1502.928 1284.478 L 1500.709 1284.478 L 1500.709 1286.773 C 1500.709 1290.573 1497.731 1293.658 1494.056 1293.658 L 1467.442 1293.658 C 1463.767 1293.658 1460.789 1290.573 1460.789 1286.773 L 1460.789 1273.005 C 1460.789 1269.202 1463.767 1266.12 1467.442 1266.12 L 1494.056 1266.12 Z M 1494.052 1269.562 L 1467.442 1269.562 C 1465.711 1269.562 1464.29 1270.926 1464.13 1272.672 L 1464.115 1273.005 L 1464.115 1286.773 C 1464.115 1288.561 1465.434 1290.032 1467.12 1290.199 L 1467.442 1290.215 L 1494.052 1290.215 C 1495.782 1290.215 1497.203 1288.85 1497.363 1287.104 L 1497.378 1286.773 L 1497.378 1273.005 C 1497.378 1271.215 1496.058 1269.744 1494.373 1269.576 L 1494.052 1269.562 Z M 1469.666 1273 L 1471.877 1273 C 1473.015 1273 1473.953 1273.886 1474.079 1275.029 L 1474.096 1275.295 L 1474.096 1284.474 C 1474.096 1285.651 1473.239 1286.622 1472.137 1286.755 L 1471.877 1286.769 L 1469.666 1286.769 C 1468.529 1286.769 1467.592 1285.883 1467.464 1284.742 L 1467.449 1284.474 L 1467.449 1275.295 C 1467.449 1274.118 1468.304 1273.149 1469.408 1273.016 L 1469.666 1273 L 1471.877 1273 L 1469.666 1273 Z" fill="#212121" style=""/>
  <path d="M 1379.991 1271.724 C 1380.888 1272.651 1381.731 1273.707 1382.466 1274.808 C 1382.988 1275.591 1382.797 1276.662 1382.04 1277.202 C 1381.285 1277.743 1380.249 1277.546 1379.728 1276.763 C 1379.104 1275.829 1378.388 1274.934 1377.639 1274.159 C 1370.738 1267.017 1359.549 1267.017 1352.647 1274.159 C 1351.936 1274.895 1351.228 1275.79 1350.58 1276.757 C 1350.057 1277.537 1349.018 1277.732 1348.265 1277.19 C 1347.51 1276.649 1347.322 1275.575 1347.846 1274.795 C 1348.602 1273.67 1349.434 1272.614 1350.296 1271.724 C 1358.496 1263.24 1371.792 1263.24 1379.991 1271.724 Z M 1375.248 1276.057 C 1376.297 1277.142 1377.201 1278.455 1377.891 1279.85 C 1378.311 1280.697 1377.986 1281.734 1377.168 1282.165 C 1376.35 1282.599 1375.348 1282.264 1374.928 1281.417 C 1374.393 1280.332 1373.69 1279.313 1372.895 1278.491 C 1368.614 1274.062 1361.673 1274.062 1357.391 1278.491 C 1356.56 1279.352 1355.886 1280.318 1355.365 1281.383 C 1354.949 1282.232 1353.949 1282.572 1353.129 1282.142 C 1352.31 1281.713 1351.982 1280.678 1352.396 1279.829 C 1353.075 1278.441 1353.958 1277.176 1355.04 1276.057 C 1360.62 1270.283 1369.667 1270.283 1375.248 1276.057 Z M 1371.621 1281.539 C 1372.427 1282.374 1373.089 1283.395 1373.549 1284.483 C 1373.917 1285.353 1373.535 1286.369 1372.693 1286.75 C 1371.852 1287.131 1370.872 1286.734 1370.501 1285.865 C 1370.204 1285.16 1369.774 1284.497 1369.268 1283.974 C 1366.989 1281.617 1363.297 1281.617 1361.017 1283.974 C 1360.516 1284.495 1360.106 1285.13 1359.804 1285.842 C 1359.436 1286.711 1358.457 1287.108 1357.615 1286.727 C 1356.773 1286.346 1356.39 1285.332 1356.756 1284.46 C 1357.22 1283.368 1357.862 1282.372 1358.667 1281.539 C 1362.244 1277.837 1368.044 1277.837 1371.621 1281.539 Z M 1367.111 1286.225 C 1368.187 1287.338 1368.187 1289.141 1367.111 1290.254 C 1366.035 1291.37 1364.291 1291.37 1363.213 1290.254 C 1362.139 1289.141 1362.139 1287.338 1363.213 1286.225 C 1364.291 1285.11 1366.035 1285.11 1367.111 1286.225 Z" fill="#212121" style=""/>
  <path d="M 1294.256 1273.514 L 1293.003 1274.513 L 1303.922 1283.18 L 1304.548 1283.66 L 1305.177 1283.18 L 1316.095 1274.513 L 1314.84 1273.514 L 1304.548 1281.686 Z" style="" transform="matrix(-1, 0, 0, -1, 2609.098022, 2557.174072)"/>
  
  <text style="font-family: &quot;Segoe UI Variable&quot;;font-size: 10px;white-space: pre;" x="360.998" y="270.227" transform="matrix(2.188442, 0, 0, 2.294784, 752.514343, 681.842712)">27/07/2021</text>
  <path d="M 1426.593 1262.951 C 1426.593 1260.948 1424.285 1259.906 1422.864 1261.269 L 1414.277 1269.517 C 1414.073 1269.714 1413.802 1269.822 1413.523 1269.822 L 1407.742 1269.822 C 1405.903 1269.822 1404.415 1271.364 1404.415 1273.264 L 1404.415 1284.738 C 1404.415 1286.64 1405.903 1288.18 1407.742 1288.18 L 1413.523 1288.18 C 1413.802 1288.18 1414.073 1288.29 1414.277 1288.487 L 1422.864 1296.733 C 1424.285 1298.096 1426.593 1297.054 1426.593 1295.051 L 1426.593 1262.951 Z M 1415.785 1271.199 L 1424.376 1262.951 L 1424.376 1295.051 L 1415.785 1286.805 C 1415.171 1286.213 1414.361 1285.885 1413.523 1285.885 L 1407.742 1285.885 C 1407.127 1285.885 1406.632 1285.371 1406.632 1284.738 L 1406.632 1273.264 C 1406.632 1272.631 1407.127 1272.116 1407.742 1272.116 L 1413.523 1272.116 C 1414.361 1272.116 1415.171 1271.788 1415.785 1271.199 Z" style=""/>
  <path d="M 1431.215 1285.731 C 1430.685 1285.417 1430.501 1284.715 1430.806 1284.166 C 1432.528 1281.073 1432.653 1277.147 1430.804 1273.838 C 1430.499 1273.289 1430.681 1272.587 1431.211 1272.27 C 1431.743 1271.954 1432.42 1272.142 1432.728 1272.69 C 1434.986 1276.736 1434.831 1281.539 1432.73 1285.312 C 1432.424 1285.86 1431.745 1286.048 1431.215 1285.731 Z" style=""/>
  <circle style="fill: rgb(0, 120, 212);" cx="417.141" cy="256.682" r="15.613" transform="matrix(1.346784, 0, 0, 1.448123, 1149.267822, 908.645569)"/>
  <text style="fill: rgb(255, 255, 255); font-family: &quot;Segoe UI Variable&quot;; font-size: 10px; white-space: pre;" x="1026.994" y="590.986" transform="matrix(2.217859, 0, 0, 2.294784, -573.676331, -67.653458)">4</text>
  <path d="M 1494.056 1266.12 C 1497.731 1266.12 1500.709 1269.202 1500.709 1273.005 L 1500.709 1275.299 L 1502.928 1275.299 C 1503.333 1275.299 1503.711 1275.41 1504.036 1275.605 C 1504.7 1276.002 1505.145 1276.743 1505.145 1277.594 L 1505.145 1282.184 C 1505.145 1283.033 1504.7 1283.774 1504.036 1284.171 C 1503.711 1284.366 1503.333 1284.478 1502.928 1284.478 L 1500.709 1284.478 L 1500.709 1286.773 C 1500.709 1290.573 1497.731 1293.658 1494.056 1293.658 L 1467.442 1293.658 C 1463.767 1293.658 1460.789 1290.573 1460.789 1286.773 L 1460.789 1273.005 C 1460.789 1269.202 1463.767 1266.12 1467.442 1266.12 L 1494.056 1266.12 Z M 1494.052 1269.562 L 1467.442 1269.562 C 1465.711 1269.562 1464.29 1270.926 1464.13 1272.672 L 1464.115 1273.005 L 1464.115 1286.773 C 1464.115 1288.561 1465.434 1290.032 1467.12 1290.199 L 1467.442 1290.215 L 1494.052 1290.215 C 1495.782 1290.215 1497.203 1288.85 1497.363 1287.104 L 1497.378 1286.773 L 1497.378 1273.005 C 1497.378 1271.215 1496.058 1269.744 1494.373 1269.576 L 1494.052 1269.562 Z M 1469.666 1273 L 1471.877 1273 C 1473.015 1273 1473.953 1273.886 1474.079 1275.029 L 1474.096 1275.295 L 1474.096 1284.474 C 1474.096 1285.651 1473.239 1286.622 1472.137 1286.755 L 1471.877 1286.769 L 1469.666 1286.769 C 1468.529 1286.769 1467.592 1285.883 1467.464 1284.742 L 1467.449 1284.474 L 1467.449 1275.295 C 1467.449 1274.118 1468.304 1273.149 1469.408 1273.016 L 1469.666 1273 L 1471.877 1273 L 1469.666 1273 Z" fill="#212121" style=""/>
  <path d="M 1379.991 1271.724 C 1380.888 1272.651 1381.731 1273.707 1382.466 1274.808 C 1382.988 1275.591 1382.797 1276.662 1382.04 1277.202 C 1381.285 1277.743 1380.249 1277.546 1379.728 1276.763 C 1379.104 1275.829 1378.388 1274.934 1377.639 1274.159 C 1370.738 1267.017 1359.549 1267.017 1352.647 1274.159 C 1351.936 1274.895 1351.228 1275.79 1350.58 1276.757 C 1350.057 1277.537 1349.018 1277.732 1348.265 1277.19 C 1347.51 1276.649 1347.322 1275.575 1347.846 1274.795 C 1348.602 1273.67 1349.434 1272.614 1350.296 1271.724 C 1358.496 1263.24 1371.792 1263.24 1379.991 1271.724 Z M 1375.248 1276.057 C 1376.297 1277.142 1377.201 1278.455 1377.891 1279.85 C 1378.311 1280.697 1377.986 1281.734 1377.168 1282.165 C 1376.35 1282.599 1375.348 1282.264 1374.928 1281.417 C 1374.393 1280.332 1373.69 1279.313 1372.895 1278.491 C 1368.614 1274.062 1361.673 1274.062 1357.391 1278.491 C 1356.56 1279.352 1355.886 1280.318 1355.365 1281.383 C 1354.949 1282.232 1353.949 1282.572 1353.129 1282.142 C 1352.31 1281.713 1351.982 1280.678 1352.396 1279.829 C 1353.075 1278.441 1353.958 1277.176 1355.04 1276.057 C 1360.62 1270.283 1369.667 1270.283 1375.248 1276.057 Z M 1371.621 1281.539 C 1372.427 1282.374 1373.089 1283.395 1373.549 1284.483 C 1373.917 1285.353 1373.535 1286.369 1372.693 1286.75 C 1371.852 1287.131 1370.872 1286.734 1370.501 1285.865 C 1370.204 1285.16 1369.774 1284.497 1369.268 1283.974 C 1366.989 1281.617 1363.297 1281.617 1361.017 1283.974 C 1360.516 1284.495 1360.106 1285.13 1359.804 1285.842 C 1359.436 1286.711 1358.457 1287.108 1357.615 1286.727 C 1356.773 1286.346 1356.39 1285.332 1356.756 1284.46 C 1357.22 1283.368 1357.862 1282.372 1358.667 1281.539 C 1362.244 1277.837 1368.044 1277.837 1371.621 1281.539 Z M 1367.111 1286.225 C 1368.187 1287.338 1368.187 1289.141 1367.111 1290.254 C 1366.035 1291.37 1364.291 1291.37 1363.213 1290.254 C 1362.139 1289.141 1362.139 1287.338 1363.213 1286.225 C 1364.291 1285.11 1366.035 1285.11 1367.111 1286.225 Z" fill="#212121" style=""/>
  <path d="M 1294.256 1273.514 L 1293.003 1274.513 L 1303.922 1283.18 L 1304.548 1283.66 L 1305.177 1283.18 L 1316.095 1274.513 L 1314.84 1273.514 L 1304.548 1281.686 Z" style="" transform="matrix(-1, 0, 0, -1, 2609.098022, 2557.174072)"/>
  <text transform="matrix(1.28399, 0, 0, 1.256621, 1331.279053, 1056.471436)" style="font-family: &quot;Segoe UI Variable&quot;;font-size: 18.2615px;line-height: 52.5932px;white-space: pre;" x="168.233" y="173.279">11:25 AM </text>
  
  <path d="M 1426.593 1262.951 C 1426.593 1260.948 1424.285 1259.906 1422.864 1261.269 L 1414.277 1269.517 C 1414.073 1269.714 1413.802 1269.822 1413.523 1269.822 L 1407.742 1269.822 C 1405.903 1269.822 1404.415 1271.364 1404.415 1273.264 L 1404.415 1284.738 C 1404.415 1286.64 1405.903 1288.18 1407.742 1288.18 L 1413.523 1288.18 C 1413.802 1288.18 1414.073 1288.29 1414.277 1288.487 L 1422.864 1296.733 C 1424.285 1298.096 1426.593 1297.054 1426.593 1295.051 L 1426.593 1262.951 Z M 1415.785 1271.199 L 1424.376 1262.951 L 1424.376 1295.051 L 1415.785 1286.805 C 1415.171 1286.213 1414.361 1285.885 1413.523 1285.885 L 1407.742 1285.885 C 1407.127 1285.885 1406.632 1285.371 1406.632 1284.738 L 1406.632 1273.264 C 1406.632 1272.631 1407.127 1272.116 1407.742 1272.116 L 1413.523 1272.116 C 1414.361 1272.116 1415.171 1271.788 1415.785 1271.199 Z" style=""/>
  <path d="M 1431.215 1285.731 C 1430.685 1285.417 1430.501 1284.715 1430.806 1284.166 C 1432.528 1281.073 1432.653 1277.147 1430.804 1273.838 C 1430.499 1273.289 1430.681 1272.587 1431.211 1272.27 C 1431.743 1271.954 1432.42 1272.142 1432.728 1272.69 C 1434.986 1276.736 1434.831 1281.539 1432.73 1285.312 C 1432.424 1285.86 1431.745 1286.048 1431.215 1285.731 Z" style=""/>
  <circle style="fill: rgb(0, 120, 212);" cx="417.141" cy="256.682" r="15.613" transform="matrix(1.346784, 0, 0, 1.448123, 1149.267822, 908.645569)"/>
  <text style="fill: rgb(255, 255, 255); font-family: &quot;Segoe UI Variable&quot;; font-size: 10px; white-space: pre;" x="1026.994" y="590.986" transform="matrix(2.217859, 0, 0, 2.294784, -573.676331, -67.653458)">4</text>
  <g transform="matrix(1.601203, 0, 0, 1.559865, 285.685364, 1242.008423)" fill="#F1F1F1" fill-rule="evenodd" style="" bx:origin="0.506 0.507">
    <rect fill="#FFFFG" fill-rule="nonzero" x="7.86" y="1.32" width="27.7585" height="27.7585" rx="1.3879"/>
    <rect fill="#3A3A38" fill-rule="nonzero" x=".684" y="7.7846" width="28.9658" height="28.9658" rx="1.4483"/>
    <path d="M7.783 9.2328c0-.7998.648-1.4482 1.448-1.4482h20.276v20.276c0 .7999-.648 1.4483-1.448 1.4483H7.784V9.2328z" fill="#C1C1C0" fill-rule="nonzero"/>
  </g>
  <path fill="#0077d4" d="M 132.598 1254.496 L 150.359 1254.496 C 151.01 1254.496 151.545 1255.044 151.545 1255.721 L 151.545 1274.1 C 151.545 1274.777 151.01 1275.323 150.359 1275.323 L 132.598 1275.323 C 131.943 1275.323 131.413 1274.777 131.413 1274.1 L 131.413 1255.721 C 131.413 1255.044 131.943 1254.496 132.598 1254.496 Z" style=""/>
  <path fill="#0077d4" d="M 153.96 1274.045 L 153.96 1255.721 C 153.96 1255.044 154.491 1254.496 155.145 1254.496 L 172.857 1254.496 C 173.508 1254.496 174.038 1255.044 174.038 1255.721 L 174.038 1274.045 C 174.038 1274.722 173.508 1275.275 172.857 1275.275 L 155.145 1275.275 C 154.491 1275.275 153.96 1274.722 153.96 1274.045 Z" style=""/>
  <path fill="#0077d4" d="M 132.598 1277.774 L 150.359 1277.774 C 151.01 1277.774 151.545 1278.325 151.545 1278.997 L 151.545 1297.376 C 151.545 1298.053 151.01 1298.599 150.359 1298.599 L 132.598 1298.599 C 131.943 1298.599 131.413 1298.053 131.413 1297.376 L 131.413 1278.997 C 131.413 1278.325 131.943 1277.774 132.598 1277.774 Z" style=""/>
  <path fill="#0077d4" d="M 153.912 1297.376 L 153.912 1278.997 C 153.912 1278.325 154.441 1277.774 155.094 1277.774 L 172.857 1277.774 C 173.508 1277.774 174.038 1278.325 174.038 1278.997 L 174.038 1297.376 C 174.038 1298.053 173.508 1298.599 172.857 1298.599 L 155.094 1298.599 C 154.441 1298.599 153.912 1298.053 153.912 1297.376 Z" style=""/>
  <g id="g-1" transform="matrix(0, 0.054187, -0.052414, 0, 257.267303, 1249.590942)" style="">
    <path style=" stroke:none;fill-rule:nonzero;fill:rgb(0%,0%,0%);fill-opacity:1;" d="M 419.710938 118.273438 C 253.589844 118.273438 118.273438 253.589844 118.273438 419.710938 C 118.273438 585.835938 253.589844 721.152344 419.710938 721.152344 C 491.953125 721.152344 558.296875 695.5 610.289062 652.914062 L 790.269531 832.898438 C 797.832031 840.773438 809.058594 843.945312 819.621094 841.191406 C 830.1875 838.4375 838.4375 830.1875 841.191406 819.621094 C 843.945312 809.058594 840.773438 797.832031 832.898438 790.269531 L 652.914062 610.289062 C 695.5 558.296875 721.152344 491.953125 721.152344 419.710938 C 721.152344 253.589844 585.835938 118.273438 419.710938 118.273438 Z M 419.710938 178.558594 C 553.253906 178.558594 660.863281 286.171875 660.863281 419.710938 C 660.863281 553.253906 553.253906 660.863281 419.710938 660.863281 C 286.171875 660.863281 178.558594 553.253906 178.558594 419.710938 C 178.558594 286.171875 286.171875 178.558594 419.710938 178.558594 Z M 419.710938 178.558594 "/>
  </g>
  <path d="M 522.765 1288.66 C 522.054 1289.037 521.32 1289.365 520.565 1289.652 C 518.164 1290.558 515.624 1291.017 513.062 1291.01 C 503.176 1291.01 494.562 1284.163 494.562 1275.371 C 494.586 1272.969 495.901 1270.773 497.992 1269.625 C 489.051 1270.002 486.75 1279.39 486.75 1284.888 C 486.75 1300.435 500.981 1302.011 504.044 1302.011 C 505.697 1302.011 508.192 1301.527 509.684 1301.05 L 509.962 1300.96 C 515.72 1298.953 520.629 1295.033 523.878 1289.847 C 524.225 1289.298 523.85 1288.582 523.207 1288.555 C 523.054 1288.548 522.903 1288.585 522.765 1288.66 Z" fill="url(#gradient-1)" style=""/>
  <path style="isolation: isolate;" d="M 522.765 1288.66 C 522.054 1289.037 521.32 1289.365 520.565 1289.652 C 518.164 1290.558 515.624 1291.017 513.062 1291.01 C 503.176 1291.01 494.562 1284.163 494.562 1275.371 C 494.586 1272.969 495.901 1270.773 497.992 1269.625 C 489.051 1270.002 486.75 1279.39 486.75 1284.888 C 486.75 1300.435 500.981 1302.011 504.044 1302.011 C 505.697 1302.011 508.192 1301.527 509.684 1301.05 L 509.962 1300.96 C 515.72 1298.953 520.629 1295.033 523.878 1289.847 C 524.225 1289.298 523.85 1288.582 523.207 1288.555 C 523.054 1288.548 522.903 1288.585 522.765 1288.66 Z" fill="url(#gradient-2)" opacity=".35"/>
  <path d="M 496.575 1299.368 C 494.712 1298.204 493.095 1296.676 491.824 1294.877 C 485.645 1286.354 488.598 1274.286 497.992 1269.625 C 498.646 1269.315 499.762 1268.755 501.238 1268.783 C 503.357 1268.799 505.345 1269.811 506.608 1271.518 C 507.453 1272.652 507.919 1274.027 507.937 1275.445 C 507.937 1275.399 513.049 1258.695 491.221 1258.695 C 482.048 1258.695 474.5 1267.459 474.5 1275.151 C 474.464 1279.222 475.332 1283.247 477.033 1286.937 C 482.793 1299.311 496.839 1305.38 509.714 1301.059 C 505.306 1302.457 500.514 1301.844 496.591 1299.377 Z" fill="url(#gradient-3)" style=""/>
  <path style="isolation: isolate;" d="M 496.575 1299.368 C 494.712 1298.204 493.095 1296.676 491.824 1294.877 C 485.645 1286.354 488.598 1274.286 497.992 1269.625 C 498.646 1269.315 499.762 1268.755 501.238 1268.783 C 503.357 1268.799 505.345 1269.811 506.608 1271.518 C 507.453 1272.652 507.919 1274.027 507.937 1275.445 C 507.937 1275.399 513.049 1258.695 491.221 1258.695 C 482.048 1258.695 474.5 1267.459 474.5 1275.151 C 474.464 1279.222 475.332 1283.247 477.033 1286.937 C 482.793 1299.311 496.839 1305.38 509.714 1301.059 C 505.306 1302.457 500.514 1301.844 496.591 1299.377 Z" fill="url(#gradient-4)" opacity=".41"/>
  <path d="M 506.309 1279.887 C 506.143 1280.11 505.623 1280.415 505.623 1281.081 C 505.623 1281.629 505.979 1282.157 506.608 1282.602 C 509.617 1284.707 515.279 1284.427 515.294 1284.427 C 517.523 1284.424 519.707 1283.816 521.62 1282.671 C 525.549 1280.36 527.968 1276.126 527.978 1271.544 C 528.035 1266.828 526.306 1263.691 525.609 1262.303 C 521.18 1253.578 511.621 1248.564 501.228 1248.564 C 486.6 1248.561 474.685 1260.391 474.479 1275.121 C 474.581 1267.431 482.17 1261.222 491.197 1261.222 C 491.928 1261.222 496.1 1261.293 499.972 1263.34 C 503.388 1265.143 505.178 1267.328 506.42 1269.485 C 507.712 1271.734 507.944 1274.568 507.944 1275.699 C 507.944 1276.829 507.371 1278.506 506.309 1279.887 Z" fill="url(#gradient-5)" style=""/>
  <path d="M 506.309 1279.887 C 506.143 1280.11 505.623 1280.415 505.623 1281.081 C 505.623 1281.629 505.979 1282.157 506.608 1282.602 C 509.617 1284.707 515.279 1284.427 515.294 1284.427 C 517.523 1284.424 519.707 1283.816 521.62 1282.671 C 525.549 1280.36 527.968 1276.126 527.978 1271.544 C 528.035 1266.828 526.306 1263.691 525.609 1262.303 C 521.18 1253.578 511.621 1248.564 501.228 1248.564 C 486.6 1248.561 474.685 1260.391 474.479 1275.121 C 474.581 1267.431 482.17 1261.222 491.197 1261.222 C 491.928 1261.222 496.1 1261.293 499.972 1263.34 C 503.388 1265.143 505.178 1267.328 506.42 1269.485 C 507.712 1271.734 507.944 1274.568 507.944 1275.699 C 507.944 1276.829 507.371 1278.506 506.309 1279.887 Z" fill="url(#gradient-6)" style=""/>
  <rect x="380.25" y="1250.98" width="53" height="49.761" style="fill: rgb(9, 93, 170);" bx:origin="0.442 0.504"/>
  <rect x="384.753" y="1256.147" width="22" height="40.486" style="fill: rgb(241, 241, 241);" rx="1.024" ry="1.024"/>
  <rect x="411.729" y="1256.387" width="18" height="23.885" style="fill: rgb(64, 230, 232);"/>
  <rect x="411.626" y="1279.324" width="18" height="9.952" style="fill: rgb(38, 167, 176);" rx="0.835" ry="0.835"/>
  <rect x="411.514" y="1288.95" width="18" height="7.962" style="fill: rgb(15, 152, 181);"/>
  
  <linearGradient id="Jk4AAv6ULAQCv3MFe9sLga" x1="24" x2="24" y1="6.708" y2="14.977" gradientUnits="userSpaceOnUse" gradientTransform="matrix(1.20401, 0, 0, 1.204011, 555.774185, 1244.68396)">
    <stop offset="0" stop-color="#eba600"/>
    <stop offset="1" stop-color="#c28200"/>
  </linearGradient>
  <path fill="url(#Jk4AAv6ULAQCv3MFe9sLga)" d="M 585.169 1257.223 L 582.115 1254.17 C 581.439 1253.493 580.52 1253.113 579.562 1253.113 L 561.794 1253.113 C 560.464 1253.113 559.386 1254.19 559.386 1255.521 L 559.386 1291.641 C 559.386 1292.971 560.464 1294.049 561.794 1294.049 L 607.546 1294.049 C 608.877 1294.049 609.954 1292.971 609.954 1291.641 L 609.954 1260.337 C 609.954 1259.006 608.877 1257.929 607.546 1257.929 L 586.871 1257.929 C 586.233 1257.929 585.62 1257.675 585.169 1257.223 Z" style=""/>
  <linearGradient id="Jk4AAv6ULAQCv3MFe9sLgb" x1="24" x2="24" y1="10.854" y2="40.983" gradientUnits="userSpaceOnUse" gradientTransform="matrix(1.20401, 0, 0, 1.204011, 555.774185, 1244.68396)">
    <stop offset="0" stop-color="#ffd869"/>
    <stop offset="1" stop-color="#fec52b"/>
  </linearGradient>
  <path fill="url(#Jk4AAv6ULAQCv3MFe9sLgb)" d="M 581.764 1262.039 L 585.698 1258.104 C 585.81 1257.992 585.963 1257.929 586.123 1257.929 L 607.546 1257.929 C 608.877 1257.929 609.954 1259.006 609.954 1260.337 L 609.954 1291.641 C 609.954 1292.971 608.877 1294.049 607.546 1294.049 L 561.794 1294.049 C 560.464 1294.049 559.386 1292.971 559.386 1291.641 L 559.386 1263.347 C 559.386 1263.014 559.656 1262.745 559.988 1262.745 L 580.061 1262.745 C 580.699 1262.745 581.312 1262.491 581.764 1262.039 Z" style=""/>
  <linearGradient id="Jk4AAv6ULAQCv3MFe9sLgc" x1="17.563" x2="32.184" y1="28.037" y2="42.236" gradientUnits="userSpaceOnUse" gradientTransform="matrix(1.20401, 0, 0, 1.204011, 555.774185, 1244.68396)">
    <stop offset="0" stop-color="#0176d1"/>
    <stop offset="1" stop-color="#016dc2"/>
  </linearGradient>
  <path xmlns="http://www.w3.org/2000/svg" d="M 600.509 1283.527 L 570.147 1283.732 C 569.627 1291.149 570.306 1294.112 570.306 1294.112 L 600.782 1294.117 C 600.782 1294.117 601.229 1289.903 600.509 1283.527 Z" style="" fill="url(#Jk4AAv6ULAQCv3MFe9sLgd)"/>
  <linearGradient xmlns="http://www.w3.org/2000/svg" id="Jk4AAv6ULAQCv3MFe9sLgd" x1="24" x2="24" y1="25.968" y2="34.273" gradientUnits="userSpaceOnUse" gradientTransform="matrix(1.20401, 0, 0, 1.204011, 555.774185, 1244.68396)">
    <stop offset="0" stop-color="#118fdd"/>
    <stop offset="1" stop-color="#108bd6"/>
  </linearGradient><rect xmlns="http://www.w3.org/2000/svg" x="577.775" y="1289.82" width="15.087" height="1.017" style="fill: rgb(16, 84, 151);"/>
  
</svg>