<svg xmlns="http://www.w3.org/2000/svg" xmlns:xlink="http://www.w3.org/1999/xlink" viewBox="0 0 960 960" width="960px" height="960px">
<g id="surface43071282">

<path style=" stroke:none;fill-rule:nonzero;fill:rgb(0%,0%,0%);fill-opacity:1;" d="M 419.710938 118.273438 C 253.589844 118.273438 118.273438 253.589844 118.273438 419.710938 C 118.273438 585.835938 253.589844 721.152344 419.710938 721.152344 C 491.953125 721.152344 558.296875 695.5 610.289062 652.914062 L 790.269531 832.898438 C 797.832031 840.773438 809.058594 843.945312 819.621094 841.191406 C 830.1875 838.4375 838.4375 830.1875 841.191406 819.621094 C 843.945312 809.058594 840.773438 797.832031 832.898438 790.269531 L 652.914062 610.289062 C 695.5 558.296875 721.152344 491.953125 721.152344 419.710938 C 721.152344 253.589844 585.835938 118.273438 419.710938 118.273438 Z M 419.710938 178.558594 C 553.253906 178.558594 660.863281 286.171875 660.863281 419.710938 C 660.863281 553.253906 553.253906 660.863281 419.710938 660.863281 C 286.171875 660.863281 178.558594 553.253906 178.558594 419.710938 C 178.558594 286.171875 286.171875 178.558594 419.710938 178.558594 Z M 419.710938 178.558594 "/>
</g>
</svg>